<svg width="15" height="17" viewBox="0 0 15 17" fill="none" xmlns="http://www.w3.org/2000/svg">
<path d="M1.66667 16.4131H0V15.571C0.00367386 12.3169 2.6132 9.67996 5.83333 9.67624H9.16667C12.3868 9.67996 14.9963 12.3169 15 15.571V16.4131H13.3333V15.571C13.3306 13.2467 11.4667 11.3632 9.16667 11.3605H5.83333C3.53329 11.3632 1.66942 13.2467 1.66667 15.571V16.4131ZM7.5 8.83414C5.19881 8.83414 3.33333 6.94902 3.33333 4.62361C3.33333 2.2982 5.19881 0.413086 7.5 0.413086C9.80119 0.413086 11.6667 2.2982 11.6667 4.62361C11.6639 6.94787 9.80004 8.83135 7.5 8.83414ZM7.5 2.0973C6.11929 2.0973 5 3.22837 5 4.62361C5 6.01886 6.11929 7.14993 7.5 7.14993C8.88071 7.14993 10 6.01886 10 4.62361C10 3.22837 8.88071 2.0973 7.5 2.0973Z" fill="#79655E"/>
</svg>
