<svg width="17" height="16" viewBox="0 0 17 16" fill="none" xmlns="http://www.w3.org/2000/svg">
<path d="M5.16085 9.26411C5.60137 9.26411 5.95849 8.91163 5.95849 8.47682C5.95849 8.04202 5.60137 7.68954 5.16085 7.68954C4.72032 7.68954 4.36321 8.04202 4.36321 8.47682C4.36321 8.91163 4.72032 9.26411 5.16085 9.26411Z" fill="#79655E"/>
<path d="M9.14905 8.47682C9.14905 8.91163 8.79194 9.26411 8.35141 9.26411C7.91089 9.26411 7.55377 8.91163 7.55377 8.47682C7.55377 8.04202 7.91089 7.68954 8.35141 7.68954C8.79194 7.68954 9.14905 8.04202 9.14905 8.47682Z" fill="#79655E"/>
<path d="M11.542 9.26411C11.9825 9.26411 12.3396 8.91163 12.3396 8.47682C12.3396 8.04202 11.9825 7.68954 11.542 7.68954C11.1014 7.68954 10.7443 8.04202 10.7443 8.47682C10.7443 8.91163 11.1014 9.26411 11.542 9.26411Z" fill="#79655E"/>
<path d="M5.95849 11.626C5.95849 12.0608 5.60137 12.4132 5.16085 12.4132C4.72032 12.4132 4.36321 12.0608 4.36321 11.626C4.36321 11.1911 4.72032 10.8387 5.16085 10.8387C5.60137 10.8387 5.95849 11.1911 5.95849 11.626Z" fill="#79655E"/>
<path d="M8.35141 12.4132C8.79194 12.4132 9.14905 12.0608 9.14905 11.626C9.14905 11.1911 8.79194 10.8387 8.35141 10.8387C7.91089 10.8387 7.55377 11.1911 7.55377 11.626C7.55377 12.0608 7.91089 12.4132 8.35141 12.4132Z" fill="#79655E"/>
<path fill-rule="evenodd" clip-rule="evenodd" d="M5.16085 1.39129C5.16085 0.956482 4.80373 0.604004 4.36321 0.604004C3.92268 0.604004 3.56556 0.956482 3.56556 1.39129H1.97028C1.08923 1.39129 0.375 2.09624 0.375 2.96585V13.9878C0.375 14.8574 1.08923 15.5624 1.97028 15.5624H14.7325C15.6136 15.5624 16.3278 14.8574 16.3278 13.9878V2.96585C16.3278 2.09624 15.6136 1.39129 14.7325 1.39129H13.1373C13.1373 0.956482 12.7801 0.604004 12.3396 0.604004C11.8991 0.604004 11.542 0.956482 11.542 1.39129H5.16085ZM1.97028 4.54041V2.96585H14.7325V4.54041H1.97028ZM1.97028 6.11498V13.9878H10.0836L14.7325 9.39921V6.11498H1.97028ZM14.7325 11.626L12.3396 13.9878H14.7325V11.626Z" fill="#79655E"/>
</svg>
