<svg width="18" height="13" viewBox="0 0 18 13" fill="none" xmlns="http://www.w3.org/2000/svg">
<path d="M7.95293 9.42801L7.95365 9.42946L9.00181 11.5343L10.0585 9.42946L10.0592 9.42801L11.4412 6.6528L8.99968 1.76973C8.84421 2.08006 8.69433 2.37912 8.54756 2.67197C7.89549 3.97307 7.30488 5.15153 6.55893 6.65127L7.95293 9.42801Z" stroke="#0C0B10"/>
<path d="M1.4509 8.42801L1.4509 8.42801L1.45162 8.42946L2.00181 9.53431L2.55647 8.42946L2.5572 8.42801L3.44121 6.6528L1.99963 3.76963C1.94814 3.87238 1.89742 3.97358 1.84725 4.07368C1.42346 4.91929 1.03872 5.68698 0.558941 6.65129L1.4509 8.42801Z" stroke="#0C0B10"/>
<path d="M15.4509 8.42801L15.4509 8.42801L15.4516 8.42946L16.0018 9.53431L16.5565 8.42946L16.5572 8.42801L17.4412 6.6528L15.9996 3.76963C15.9481 3.87238 15.8974 3.97358 15.8473 4.07368C15.4235 4.91929 15.0387 5.68698 14.5589 6.65129L15.4509 8.42801Z" stroke="#0C0B10"/>
</svg>
